<?xml version="1.0" standalone="no"?>
<!DOCTYPE svg PUBLIC "-//W3C//DTD SVG 20010904//EN"
 "http://www.w3.org/TR/2001/REC-SVG-20010904/DTD/svg10.dtd">
<svg version="1.0" xmlns="http://www.w3.org/2000/svg"
 width="280.000000pt" height="280.000000pt" viewBox="0 0 280.000000 280.000000"
 preserveAspectRatio="xMidYMid meet">
<metadata>
Created by potrace 1.14, written by Peter Selinger 2001-2017
</metadata>
<g transform="translate(0.000000,280.000000) scale(0.100000,-0.100000)"
fill="#000000" stroke="none">
<path d="M380 2788 c-25 -5 -49 -14 -54 -19 -6 -5 -18 -9 -27 -9 -9 0 -22 -7
-29 -15 -7 -8 -16 -12 -21 -9 -5 3 -9 0 -9 -5 0 -6 -6 -11 -14 -11 -8 0 -16
-7 -20 -15 -3 -8 -12 -15 -19 -15 -26 0 -123 -123 -142 -180 -1 -3 -7 -18 -14
-34 -6 -16 -16 -48 -21 -73 -14 -59 -13 -1954 1 -2008 5 -22 12 -51 15 -65 3
-14 9 -26 15 -28 5 -2 9 -10 9 -19 0 -30 114 -173 139 -173 5 0 11 -4 13 -8 6
-14 66 -52 81 -52 9 0 17 -4 19 -9 2 -6 14 -12 28 -15 14 -3 41 -10 60 -15 24
-8 348 -10 1030 -8 976 2 996 3 1047 23 28 11 58 26 67 33 9 8 16 10 16 6 0
-9 79 52 110 86 42 44 60 69 60 79 0 6 5 10 11 10 5 0 7 4 4 10 -3 5 -2 10 3
10 5 0 13 10 17 22 4 13 9 28 10 33 35 102 35 80 35 1079 -1 629 -4 987 -11
1016 -13 55 -59 160 -70 160 -5 0 -9 6 -9 14 0 17 -106 126 -122 126 -6 0 -16
6 -22 14 -6 7 -42 27 -81 42 l-70 29 -995 2 c-631 1 -1011 -2 -1040 -9z"/>
</g>
</svg>
